<?xml version="1.0" encoding="iso-8859-1"?>
<!-- Generator: Adobe Illustrator 16.0.0, SVG Export Plug-In . SVG Version: 6.00 Build 0)  -->
<!DOCTYPE svg PUBLIC "-//W3C//DTD SVG 1.1//EN" "http://www.w3.org/Graphics/SVG/1.1/DTD/svg11.dtd">
<svg version="1.1" id="Capa_1" xmlns="http://www.w3.org/2000/svg" xmlns:xlink="http://www.w3.org/1999/xlink" x="0px" y="0px"
	 width="573.989px" height="573.99px" viewBox="0 0 573.989 573.99" style="enable-background:new 0 0 573.989 573.99;"
	 xml:space="preserve">
<g>
	<g>
		<g>
			<path d="M532.827,28.478H41.161C18.468,28.478,0,46.946,0,69.651v297.95c0,22.703,18.468,41.174,41.161,41.174H215.4v63.937
				h-75.947c-11.659,0-21.128,9.459-21.128,21.141v30.52c0,11.681,9.472,21.14,21.128,21.14h295.084
				c11.66,0,21.128-9.459,21.128-21.14v-30.52c0-11.682-9.47-21.141-21.128-21.141H358.59v-63.937h174.236
				c22.693,0,41.163-18.469,41.163-41.174V69.651C573.99,46.946,555.521,28.478,532.827,28.478z M40.067,367.601L41.16,68.546
				l492.76,1.105v299.036L40.067,367.601z M553.956,343.556c-5.713,0-10.353-4.637-10.353-10.338c0-5.724,4.64-10.353,10.353-10.353
				c5.714,0,10.347,4.627,10.347,10.353C564.303,338.921,559.67,343.556,553.956,343.556z M553.956,300.39
				c-5.713,0-10.353-4.627-10.353-10.351c0-5.702,4.64-10.337,10.353-10.337c5.714,0,10.347,4.637,10.347,10.337
				C564.303,295.763,559.67,300.39,553.956,300.39z"/>
			<path d="M269.496,248.272c2.091,0.645,4.4,0.047,5.946-1.505l16.062-16.063l37.621,37.603c2.33,2.317,6.083,2.317,8.413,0
				l14.848-14.831c1.115-1.104,1.741-2.622,1.741-4.194c0-1.575-0.626-3.093-1.741-4.207l-37.62-37.62l16.081-16.091
				c1.526-1.546,2.132-3.817,1.507-5.91c-0.665-2.073-2.405-3.647-4.498-4.088l-69.474-14.027c-1.956-0.39-3.972,0.216-5.381,1.624
				c-1.369,1.418-2.034,3.433-1.604,5.371l14.027,69.434C265.873,245.893,267.421,247.654,269.496,248.272z"/>
		</g>
	</g>
</g>
<g>
</g>
<g>
</g>
<g>
</g>
<g>
</g>
<g>
</g>
<g>
</g>
<g>
</g>
<g>
</g>
<g>
</g>
<g>
</g>
<g>
</g>
<g>
</g>
<g>
</g>
<g>
</g>
<g>
</g>
</svg>
